{
    "asset": {
        "generator": "SOLIDWORKSGLTF",
        "version": "2.0"
    },
    "scene": 0,
    "scenes": [
        {
            "name": "Default",
            "nodes": [
                0,
                1,
                2,
                3,
                4,
                5,
                6,
                7,
                8,
                9,
                10,
                11
            ]
        }
    ],
    "nodes": [
        {
            "matrix": [
                0.751986597659392,
                0.0,
                -0.6591783953837168,
                0.0,
                -0.37998806756596437,
                0.8171274132258831,
                -0.43348801490036715,
                0.0,
                0.5386327370742849,
                0.5764571020941427,
                0.614468863325952,
                0.0,
                0.12298603833501486,
                0.13074802039059147,
                0.1413017046293181,
                1.0
            ],
            "camera": 0,
            "name": "current camera"
        },
        {
            "matrix": [
                1.0,
                0.0,
                0.0,
                0.0,
                0.0,
                1.0,
                0.0,
                0.0,
                0.0,
                0.0,
                1.0,
                0.0,
                0.0,
                -0.0008744569986043234,
                0.18146969238222982,
                1.0
            ],
            "camera": 1,
            "name": "*Normale a"
        },
        {
            "matrix": [
                1.0,
                0.0,
                0.0,
                0.0,
                0.0,
                1.0,
                0.0,
                0.0,
                0.0,
                0.0,
                1.0,
                0.0,
                0.0,
                -0.0008744569986043234,
                0.18146969238222982,
                1.0
            ],
            "camera": 2,
            "name": "*Anteriore"
        },
        {
            "matrix": [
                -1.0,
                0.0,
                0.0,
                0.0,
                0.0,
                1.0,
                0.0,
                0.0,
                -0.0,
                -0.0,
                -1.0,
                0.0,
                1.2597121822355958e-15,
                -0.0008744569986043234,
                -0.17946969238222982,
                1.0
            ],
            "camera": 3,
            "name": "*Posteriore"
        },
        {
            "matrix": [
                3.4914813388431334e-15,
                -0.0,
                1.0,
                0.0,
                0.0,
                1.0,
                0.0,
                0.0,
                -1.0,
                -0.0,
                3.4914813388431334e-15,
                0.0,
                -0.18046969238222982,
                -0.0008744569986043234,
                0.0009999999999993703,
                1.0
            ],
            "camera": 4,
            "name": "*Sinistra"
        },
        {
            "matrix": [
                3.4914813388431334e-15,
                0.0,
                -1.0,
                0.0,
                0.0,
                1.0,
                0.0,
                0.0,
                1.0,
                -0.0,
                3.4914813388431334e-15,
                0.0,
                0.18046969238222982,
                -0.0008744569986043234,
                0.0009999999999993692,
                1.0
            ],
            "camera": 5,
            "name": "*Destra"
        },
        {
            "matrix": [
                1.0,
                0.0,
                -6.982962677686267e-15,
                0.0,
                -6.982962677686267e-15,
                6.123233995736766e-17,
                -1.0,
                0.0,
                4.275831445896959e-31,
                1.0,
                6.123233995736766e-17,
                0.0,
                0.0,
                0.15112862054488413,
                0.0010000000000000093,
                1.0
            ],
            "camera": 6,
            "name": "*Superiore"
        },
        {
            "matrix": [
                1.0,
                0.0,
                -6.982962677686267e-15,
                0.0,
                6.982962677686267e-15,
                7.16665969755837e-15,
                1.0,
                0.0,
                5.004451719172844e-29,
                -1.0,
                7.16665969755837e-15,
                0.0,
                0.0,
                -0.1528775345420928,
                0.0010000000000010896,
                1.0
            ],
            "camera": 7,
            "name": "*Inferiore"
        },
        {
            "matrix": [
                0.7071067811865512,
                2.7755575615628914e-17,
                -0.7071067811865438,
                0.0,
                -0.40820405591135434,
                0.8165408118857479,
                -0.4082040559113586,
                0.0,
                0.5773815451999783,
                0.5772877120855455,
                0.5773815451999844,
                0.0,
                0.12457439737501999,
                0.12367969517844915,
                0.12557439737501958,
                1.0
            ],
            "camera": 8,
            "name": "*Isometrico"
        },
        {
            "matrix": [
                0.8844181216774244,
                -9.819013620820098e-17,
                -0.46669538893005613,
                0.0,
                -0.24036589468391958,
                0.8571673007021322,
                -0.45550900680427747,
                0.0,
                0.400036026779308,
                0.5150380749100211,
                0.7580942940502878,
                0.0,
                0.07898515069002897,
                0.10081728383130967,
                0.15068199873119367,
                1.0
            ],
            "camera": 9,
            "name": "*Trimetrico"
        },
        {
            "matrix": [
                0.9354143467241438,
                1.3877787807814457e-17,
                -0.3535533905121595,
                0.0,
                -0.1178511301426804,
                0.9428090416101028,
                -0.3118047821671958,
                0.0,
                0.33333333326677156,
                0.33333333325402575,
                0.8819171037433304,
                0.0,
                0.06367719620818078,
                0.06280273920714043,
                0.16947402539688192,
                1.0
            ],
            "camera": 10,
            "name": "*Dimetrico"
        },
        {
            "mesh": 0,
            "name": "Parte1"
        }
    ],
    "cameras": [
        {
            "type": "orthographic",
            "orthographic": {
                "xmag": 0.05446056984165907,
                "ymag": 0.04208316760491837,
                "zfar": 0.3091519792055642,
                "znear": 0.18791908135143315
            }
        },
        {
            "type": "orthographic",
            "orthographic": {
                "xmag": 0.05051370743922126,
                "ymag": 0.05051370743922126,
                "zfar": 0.26129162428498387,
                "znear": 0.14005872643085282
            }
        },
        {
            "type": "orthographic",
            "orthographic": {
                "xmag": 0.05051370743922126,
                "ymag": 0.05051370743922126,
                "zfar": 0.26129162428498387,
                "znear": 0.14005872643085282
            }
        },
        {
            "type": "orthographic",
            "orthographic": {
                "xmag": 0.05051370743922126,
                "ymag": 0.05051370743922126,
                "zfar": 0.26129162428498387,
                "znear": 0.14005872643085282
            }
        },
        {
            "type": "orthographic",
            "orthographic": {
                "xmag": 0.05051370743922126,
                "ymag": 0.05051370743922126,
                "zfar": 0.26129162428498387,
                "znear": 0.14005872643085282
            }
        },
        {
            "type": "orthographic",
            "orthographic": {
                "xmag": 0.05051370743922126,
                "ymag": 0.05051370743922126,
                "zfar": 0.26129162428498387,
                "znear": 0.14005872643085282
            }
        },
        {
            "type": "orthographic",
            "orthographic": {
                "xmag": 0.05051370743922126,
                "ymag": 0.05051370743922126,
                "zfar": 0.2328250094462425,
                "znear": 0.11159211159211145
            }
        },
        {
            "type": "orthographic",
            "orthographic": {
                "xmag": 0.05051370743922126,
                "ymag": 0.05051370743922126,
                "zfar": 0.2328250094462425,
                "znear": 0.11159211159211145
            }
        },
        {
            "type": "orthographic",
            "orthographic": {
                "xmag": 0.05051370743922126,
                "ymag": 0.05051370743922126,
                "zfar": 0.29657942954129096,
                "znear": 0.1753465316871599
            }
        },
        {
            "type": "orthographic",
            "orthographic": {
                "xmag": 0.05051370743922126,
                "ymag": 0.05051370743922126,
                "zfar": 0.27826702535080616,
                "znear": 0.1570341274966751
            }
        },
        {
            "type": "orthographic",
            "orthographic": {
                "xmag": 0.05051370743922126,
                "ymag": 0.05051370743922126,
                "zfar": 0.27185352056543904,
                "znear": 0.150620622711308
            }
        }
    ],
    "meshes": [
        {
            "primitives": [
                {
                    "attributes": {
                        "POSITION": 1,
                        "NORMAL": 2
                    },
                    "indices": 0,
                    "material": 0,
                    "mode": 4
                }
            ]
        }
    ],
    "accessors": [
        {
            "bufferView": 0,
            "byteOffset": 0,
            "componentType": 5125,
            "count": 1764,
            "type": "SCALAR",
            "min": [
                0
            ],
            "max": [
                705
            ]
        },
        {
            "bufferView": 1,
            "byteOffset": 0,
            "componentType": 5126,
            "count": 706,
            "type": "VEC3",
            "min": [
                -0.02895093709230423,
                -0.028999999165534973,
                0.0
            ],
            "max": [
                0.02895093709230423,
                0.02725108526647091,
                0.0020000000949949026
            ]
        },
        {
            "bufferView": 2,
            "byteOffset": 0,
            "componentType": 5126,
            "count": 706,
            "type": "VEC3",
            "min": [
                -1.0,
                -1.0,
                -1.0
            ],
            "max": [
                1.0,
                1.0,
                1.0
            ]
        }
    ],
    "materials": [
        {
            "name": "defaultplastic",
            "pbrMetallicRoughness": {
                "baseColorFactor": [
                    0.7817506899134391,
                    0.7817506899134391,
                    0.7817506899134391,
                    1.0
                ],
                "metallicFactor": 0.0,
                "roughnessFactor": 0.1899999998509884
            }
        }
    ],
    "bufferViews": [
        {
            "buffer": 0,
            "byteOffset": 0,
            "byteLength": 7056,
            "target": 34963
        },
        {
            "buffer": 0,
            "byteOffset": 7056,
            "byteLength": 8472,
            "byteStride": 12,
            "target": 34962
        },
        {
            "buffer": 0,
            "byteOffset": 15528,
            "byteLength": 8472,
            "byteStride": 12,
            "target": 34962
        }
    ],
    "buffers": [
        {
            "uri": "Parte1.bin",
            "byteLength": 24000
        }
    ]
}
